<svg width="21" height="21" viewBox="0 0 26 26" fill="none" xmlns="http://www.w3.org/2000/svg">
<g id="tabler:dots">
<path id="Vector" d="M4.33331 13C4.33331 13.2873 4.44745 13.5629 4.65061 13.7661C4.85378 13.9692 5.12933 14.0834 5.41665 14.0834C5.70396 14.0834 5.97951 13.9692 6.18268 13.7661C6.38584 13.5629 6.49998 13.2873 6.49998 13C6.49998 12.7127 6.38584 12.4372 6.18268 12.234C5.97951 12.0308 5.70396 11.9167 5.41665 11.9167C5.12933 11.9167 4.85378 12.0308 4.65061 12.234C4.44745 12.4372 4.33331 12.7127 4.33331 13ZM11.9166 13C11.9166 13.2873 12.0308 13.5629 12.2339 13.7661C12.4371 13.9692 12.7127 14.0834 13 14.0834C13.2873 14.0834 13.5628 13.9692 13.766 13.7661C13.9692 13.5629 14.0833 13.2873 14.0833 13C14.0833 12.7127 13.9692 12.4372 13.766 12.234C13.5628 12.0308 13.2873 11.9167 13 11.9167C12.7127 11.9167 12.4371 12.0308 12.2339 12.234C12.0308 12.4372 11.9166 12.7127 11.9166 13ZM19.5 13C19.5 13.2873 19.6141 13.5629 19.8173 13.7661C20.0204 13.9692 20.296 14.0834 20.5833 14.0834C20.8706 14.0834 21.1462 13.9692 21.3493 13.7661C21.5525 13.5629 21.6666 13.2873 21.6666 13C21.6666 12.7127 21.5525 12.4372 21.3493 12.234C21.1462 12.0308 20.8706 11.9167 20.5833 11.9167C20.296 11.9167 20.0204 12.0308 19.8173 12.234C19.6141 12.4372 19.5 12.7127 19.5 13Z" stroke="white" stroke-width="2.16667" stroke-linecap="round" stroke-linejoin="round"/>
</g>
</svg>
