<svg width="26" height="26" viewBox="0 0 26 26" fill="none" xmlns="http://www.w3.org/2000/svg">
<g id="uil:money-stack">
<path id="Vector" d="M23.8333 18.4166H2.16665C1.87933 18.4166 1.60378 18.5308 1.40061 18.7339C1.19745 18.9371 1.08331 19.2127 1.08331 19.5C1.08331 19.7873 1.19745 20.0628 1.40061 20.266C1.60378 20.4692 1.87933 20.5833 2.16665 20.5833H23.8333C24.1206 20.5833 24.3962 20.4692 24.5993 20.266C24.8025 20.0628 24.9166 19.7873 24.9166 19.5C24.9166 19.2127 24.8025 18.9371 24.5993 18.7339C24.3962 18.5308 24.1206 18.4166 23.8333 18.4166ZM23.8333 22.75H2.16665C1.87933 22.75 1.60378 22.8641 1.40061 23.0673C1.19745 23.2704 1.08331 23.546 1.08331 23.8333C1.08331 24.1206 1.19745 24.3962 1.40061 24.5993C1.60378 24.8025 1.87933 24.9166 2.16665 24.9166H23.8333C24.1206 24.9166 24.3962 24.8025 24.5993 24.5993C24.8025 24.3962 24.9166 24.1206 24.9166 23.8333C24.9166 23.546 24.8025 23.2704 24.5993 23.0673C24.3962 22.8641 24.1206 22.75 23.8333 22.75ZM6.49998 7.58331C6.28572 7.58331 6.07627 7.64685 5.89811 7.76589C5.71996 7.88493 5.58111 8.05412 5.49911 8.25207C5.41712 8.45003 5.39566 8.66785 5.43746 8.87799C5.47926 9.08814 5.58244 9.28117 5.73395 9.43268C5.88545 9.58419 6.07849 9.68736 6.28863 9.72916C6.49878 9.77096 6.7166 9.74951 6.91455 9.66752C7.11251 9.58552 7.2817 9.44667 7.40074 9.26851C7.51978 9.09036 7.58331 8.88091 7.58331 8.66665C7.58331 8.37933 7.46918 8.10378 7.26601 7.90061C7.06285 7.69745 6.7873 7.58331 6.49998 7.58331ZM21.6666 1.08331H4.33331C3.47136 1.08331 2.64471 1.42572 2.03522 2.03522C1.42572 2.64471 1.08331 3.47136 1.08331 4.33331V13C1.08331 13.8619 1.42572 14.6886 2.03522 15.2981C2.64471 15.9076 3.47136 16.25 4.33331 16.25H21.6666C22.5286 16.25 23.3553 15.9076 23.9647 15.2981C24.5742 14.6886 24.9166 13.8619 24.9166 13V4.33331C24.9166 3.47136 24.5742 2.64471 23.9647 2.03522C23.3553 1.42572 22.5286 1.08331 21.6666 1.08331ZM22.75 13C22.75 13.2873 22.6358 13.5628 22.4327 13.766C22.2295 13.9692 21.954 14.0833 21.6666 14.0833H4.33331C4.046 14.0833 3.77045 13.9692 3.56728 13.766C3.36412 13.5628 3.24998 13.2873 3.24998 13V4.33331C3.24998 4.046 3.36412 3.77045 3.56728 3.56728C3.77045 3.36412 4.046 3.24998 4.33331 3.24998H21.6666C21.954 3.24998 22.2295 3.36412 22.4327 3.56728C22.6358 3.77045 22.75 4.046 22.75 4.33331V13ZM13 5.41665C12.3572 5.41665 11.7288 5.60726 11.1944 5.96437C10.6599 6.32149 10.2434 6.82907 9.99737 7.42293C9.75139 8.01679 9.68703 8.67025 9.81243 9.30069C9.93783 9.93113 10.2474 10.5102 10.7019 10.9647C11.1564 11.4193 11.7355 11.7288 12.3659 11.8542C12.9964 11.9796 13.6498 11.9152 14.2437 11.6693C14.8376 11.4233 15.3451 11.0067 15.7023 10.4722C16.0594 9.93779 16.25 9.30944 16.25 8.66665C16.25 7.80469 15.9076 6.97804 15.2981 6.36855C14.6886 5.75906 13.8619 5.41665 13 5.41665ZM13 9.74998C12.7857 9.74998 12.5763 9.68644 12.3981 9.56741C12.22 9.44837 12.0811 9.27917 11.9991 9.08122C11.9171 8.88327 11.8957 8.66544 11.9375 8.4553C11.9793 8.24515 12.0824 8.05212 12.2339 7.90061C12.3855 7.74911 12.5785 7.64593 12.7886 7.60413C12.9988 7.56233 13.2166 7.58378 13.4146 7.66578C13.6125 7.74777 13.7817 7.88663 13.9007 8.06478C14.0198 8.24293 14.0833 8.45238 14.0833 8.66665C14.0833 8.95396 13.9692 9.22951 13.766 9.43268C13.5628 9.63584 13.2873 9.74998 13 9.74998ZM19.5 7.58331C19.2857 7.58331 19.0763 7.64685 18.8981 7.76589C18.72 7.88493 18.5811 8.05412 18.4991 8.25207C18.4171 8.45003 18.3957 8.66785 18.4375 8.87799C18.4793 9.08814 18.5824 9.28117 18.7339 9.43268C18.8855 9.58419 19.0785 9.68736 19.2886 9.72916C19.4988 9.77096 19.7166 9.74951 19.9146 9.66752C20.1125 9.58552 20.2817 9.44667 20.4007 9.26851C20.5198 9.09036 20.5833 8.88091 20.5833 8.66665C20.5833 8.37933 20.4692 8.10378 20.266 7.90061C20.0628 7.69745 19.7873 7.58331 19.5 7.58331Z" fill="white"/>
</g>
</svg>
