<svg width="26" height="26" viewBox="0 0 26 26" fill="none" xmlns="http://www.w3.org/2000/svg">
<g id="fluent:savings-20-filled">
<path id="Vector" d="M12.5385 5.27411L12.7777 5.30011C11.9629 6.52145 11.6371 8.00452 11.8651 9.45491C12.0679 10.7406 13.0546 11.5349 13.9386 11.8989L17.8945 13.5369C18.7785 13.9035 20.0369 14.04 21.0886 13.2756C21.9374 12.6575 22.6043 11.8223 23.0191 10.8576C23.2687 11.6116 23.4 12.4566 23.4 13.4004C23.4 15.6793 22.7045 17.277 21.983 18.3131C21.6488 18.7953 21.2508 19.2299 20.8 19.6053V21.4513C20.8 21.9685 20.5945 22.4645 20.2288 22.8302C19.8631 23.1959 19.3671 23.4013 18.85 23.4013H17.0508C16.666 23.3999 16.2974 23.2463 16.0255 22.9739C15.7536 22.7016 15.6007 22.3327 15.6 21.9479C15.6001 21.928 15.5964 21.9082 15.5889 21.8898C15.5814 21.8714 15.5703 21.8546 15.5563 21.8404C15.5422 21.8263 15.5256 21.8151 15.5072 21.8074C15.4888 21.7997 15.4691 21.7958 15.4492 21.7958H13.1508C13.1309 21.7958 13.1111 21.7997 13.0928 21.8074C13.0744 21.8151 13.0577 21.8263 13.0437 21.8404C13.0297 21.8546 13.0186 21.8714 13.0111 21.8898C13.0036 21.9082 12.9998 21.928 13 21.9479C13 22.75 12.35 23.4 11.5492 23.4H9.74998C9.2328 23.4 8.73681 23.1946 8.37112 22.8289C8.00542 22.4632 7.79998 21.9672 7.79998 21.45V20.7506C7.73758 20.7142 7.66954 20.6722 7.59588 20.6245C7.22148 20.3814 6.69888 19.9771 6.03718 19.3063C5.38007 18.6314 4.85066 17.843 4.47458 16.9793C4.43825 16.8855 4.3798 16.8019 4.3042 16.7356C4.2286 16.6693 4.13809 16.6222 4.04038 16.5984C3.63744 16.5302 3.27169 16.3215 3.00801 16.0092C2.74433 15.697 2.59977 15.3015 2.59998 14.8928V12.935C2.59998 12.116 3.19148 11.4166 3.99878 11.2814C4.15218 11.2554 4.32248 11.1189 4.39788 10.8875C4.59678 10.2817 4.98028 9.38601 5.68488 8.67101C6.30617 8.04824 7.01954 7.52472 7.79998 7.11881V4.11061C7.79998 3.65171 8.09898 3.32671 8.42398 3.19541C8.74898 3.06411 9.17928 3.08881 9.49908 3.39691C9.87348 3.75831 10.3896 4.21201 10.9486 4.58771C11.5219 4.97121 12.077 5.22731 12.5385 5.27411ZM8.77498 12.35C9.03356 12.35 9.28156 12.2473 9.4644 12.0644C9.64725 11.8816 9.74998 11.6336 9.74998 11.375C9.74998 11.1164 9.64725 10.8684 9.4644 10.6856C9.28156 10.5027 9.03356 10.4 8.77498 10.4C8.51639 10.4 8.26839 10.5027 8.08555 10.6856C7.9027 10.8684 7.79998 11.1164 7.79998 11.375C7.79998 11.6336 7.9027 11.8816 8.08555 12.0644C8.26839 12.2473 8.51639 12.35 8.77498 12.35ZM22.1494 9.14551L22.1546 9.15331C22.0726 9.76219 21.8681 10.3482 21.5536 10.8759C21.239 11.4036 20.8208 11.8622 20.3242 12.2239C19.7665 12.6295 19.0281 12.6009 18.3911 12.337L14.4365 10.699C13.8255 10.4455 13.3003 9.97361 13.1638 9.33401L13.1482 9.24821C13.045 8.60253 13.0822 7.94221 13.2572 7.31221C13.4323 6.6822 13.741 6.09733 14.1625 5.59742C14.584 5.09751 15.1082 4.69431 15.6996 4.41529C16.2909 4.13627 16.9354 3.98798 17.5893 3.98052C18.2431 3.97306 18.8908 4.1066 19.4884 4.37206C20.0859 4.63752 20.6193 5.02865 21.052 5.51881C21.4848 6.00898 21.8068 6.58665 21.9962 7.2125C22.1855 7.83834 22.2378 8.49765 22.1494 9.14551Z" fill="white"/>
</g>
</svg>
