<svg xmlns="http://www.w3.org/2000/svg" width="26" height="26" viewBox="0 0 16 16" fill="none">
<path d="M13.973 7.72198C13.991 7.89464 14 8.07631 14 8.26698C14 9.56398 13.548 10.436 13.11 10.982C12.9332 11.2037 12.7308 11.4038 12.507 11.578C12.431 11.6357 12.3522 11.6898 12.271 11.74L12.262 11.745C12.1827 11.7879 12.1165 11.8514 12.0704 11.9289C12.0243 12.0063 12 12.0948 12 12.185V13.5C12 13.6326 11.9473 13.7598 11.8536 13.8535C11.7598 13.9473 11.6326 14 11.5 14H11C11 13.7348 10.8946 13.4804 10.7071 13.2929C10.5196 13.1053 10.2652 13 10 13H8C7.73478 13 7.48043 13.1053 7.29289 13.2929C7.10536 13.4804 7 13.7348 7 14H6.5C6.36739 14 6.24021 13.9473 6.14645 13.8535C6.05268 13.7598 6 13.6326 6 13.5V12.897C6.00013 12.7729 5.95414 12.6533 5.87098 12.5612C5.78782 12.4692 5.67342 12.4114 5.55 12.399L5.454 12.377C4.91161 12.233 4.41735 11.9472 4.022 11.549C3.58 11.099 3.309 10.507 3.164 10.096C3.02 9.68698 2.692 9.31698 2.224 9.18498C2.15988 9.16647 2.10345 9.12776 2.0631 9.07461C2.02274 9.02146 2.00061 8.95671 2 8.88998V8.09598C1.99995 8.03297 2.02041 7.97167 2.0583 7.92133C2.09619 7.87099 2.14944 7.83436 2.21 7.81698C2.695 7.67798 3.019 7.28598 3.156 6.87198C3.268 6.53198 3.466 6.09598 3.788 5.76898C4.15668 5.40045 4.58293 5.09445 5.05 4.86298C5.09 4.84298 5.12 4.82864 5.14 4.81998L5.16 4.80998L5.164 4.80898C5.254 4.7704 5.33069 4.70624 5.38456 4.62446C5.43842 4.54269 5.46709 4.4469 5.467 4.34898V2.67498C5.6891 2.86509 5.92289 3.0411 6.167 3.20198C6.484 3.40998 6.854 3.60698 7.241 3.71198C7.355 3.38398 7.511 3.07198 7.705 2.78398H7.699C7.42 2.75498 7.079 2.60398 6.714 2.36498C6.37946 2.14018 6.06496 1.8869 5.774 1.60798C5.66551 1.50553 5.52959 1.43682 5.38277 1.41019C5.23595 1.38356 5.08456 1.40016 4.947 1.45798C4.80581 1.51393 4.68462 1.6109 4.59906 1.73638C4.51351 1.86187 4.46751 2.0101 4.467 2.16198V4.03898C3.95647 4.31275 3.48828 4.65901 3.077 5.06698C2.6 5.54898 2.341 6.15098 2.207 6.55798C2.151 6.72498 2.039 6.82598 1.935 6.85498C1.66563 6.93208 1.42869 7.0948 1.26 7.31851C1.09131 7.54223 1.00004 7.81479 1 8.09498V8.88998C1 9.47498 1.389 9.98798 1.951 10.147C2.01495 10.1692 2.07274 10.2063 2.11966 10.2551C2.16658 10.304 2.2013 10.3632 2.221 10.428C2.387 10.9 2.719 11.651 3.311 12.251C3.78234 12.7273 4.36178 13.0827 5 13.287V13.5C5 13.8978 5.15804 14.2793 5.43934 14.5606C5.72064 14.8419 6.10218 15 6.5 15H7C7.26522 15 7.51957 14.8946 7.70711 14.7071C7.89464 14.5195 8 14.2652 8 14H10C10 14.2652 10.1054 14.5195 10.2929 14.7071C10.4804 14.8946 10.7348 15 11 15H11.5C11.8978 15 12.2794 14.8419 12.5607 14.5606C12.842 14.2793 13 13.8978 13 13.5V12.457C13.0367 12.431 13.076 12.4016 13.118 12.369C13.4045 12.1463 13.6636 11.8905 13.89 11.607C14.452 10.907 15 9.81898 15 8.26698C14.9987 7.61831 14.9087 7.03431 14.73 6.51498C14.5519 6.95937 14.2955 7.36819 13.973 7.72198ZM13.791 3.87498C14.0411 4.4782 14.0876 5.14657 13.9234 5.77861C13.7591 6.41065 13.3932 6.97184 12.881 7.37698C12.464 7.70598 11.893 7.68098 11.403 7.47698L9.013 6.48798C8.523 6.28498 8.101 5.89898 8.039 5.37198C7.95597 4.65319 8.13543 3.92859 8.54434 3.33165C8.95325 2.7347 9.56408 2.30559 10.2643 2.12334C10.9646 1.9411 11.7071 2.01799 12.3551 2.33986C13.0032 2.66173 13.5131 3.2069 13.791 3.87498ZM12.261 6.59198C12.5347 6.3757 12.7471 6.09163 12.8771 5.76794C13.0072 5.44425 13.0504 5.09218 13.0024 4.74666C12.9544 4.40114 12.8169 4.07417 12.6035 3.79818C12.3902 3.52219 12.1084 3.30677 11.7861 3.17328C11.4638 3.0398 11.1122 2.99288 10.7662 3.03719C10.4202 3.0815 10.0918 3.2155 9.81354 3.42589C9.53529 3.63628 9.31688 3.91576 9.17996 4.2366C9.04304 4.55745 8.99238 4.90851 9.033 5.25498C9.035 5.27498 9.043 5.31198 9.099 5.37098C9.18424 5.45435 9.28519 5.51995 9.396 5.56398L11.786 6.55398C11.8947 6.60396 12.0133 6.62891 12.133 6.62698C12.213 6.62498 12.246 6.60398 12.261 6.59198ZM5.75 7.49998C5.94891 7.49998 6.13968 7.42096 6.28033 7.28031C6.42098 7.13966 6.5 6.94889 6.5 6.74998C6.5 6.55107 6.42098 6.3603 6.28033 6.21965C6.13968 6.079 5.94891 5.99998 5.75 5.99998C5.55109 5.99998 5.36032 6.079 5.21967 6.21965C5.07902 6.3603 5 6.55107 5 6.74998C5 6.94889 5.07902 7.13966 5.21967 7.28031C5.36032 7.42096 5.55109 7.49998 5.75 7.49998Z" fill="white"/>
</svg>