<svg width="21" height="21" viewBox="0 0 26 26" fill="none" xmlns="http://www.w3.org/2000/svg">
<g id="mynaui:sidebar">
<path id="Vector" d="M9.75 3.79167V22.2083M3.25 10.1833C3.25 7.75667 3.25 6.54333 3.72233 5.616C4.13778 4.80067 4.80067 4.13778 5.616 3.72233C6.54333 3.25 7.75667 3.25 10.1833 3.25H15.8167C18.2433 3.25 19.4567 3.25 20.384 3.72233C21.1993 4.13778 21.8622 4.80067 22.2777 5.616C22.75 6.54333 22.75 7.75667 22.75 10.1833V15.8167C22.75 18.2433 22.75 19.4567 22.2777 20.384C21.8622 21.1993 21.1993 21.8622 20.384 22.2777C19.4567 22.75 18.2433 22.75 15.8167 22.75H10.1833C7.75667 22.75 6.54333 22.75 5.616 22.2777C4.80067 21.8622 4.13778 21.1993 3.72233 20.384C3.25 19.4567 3.25 18.2433 3.25 15.8167V10.1833Z" stroke="white" stroke-width="1.625" stroke-linecap="round" stroke-linejoin="round"/>
</g>
</svg>
