<svg width="21" height="21" viewBox="0 0 26 26" fill="none" xmlns="http://www.w3.org/2000/svg">
<g id="cuida:sidebar-expand-outline">
<path id="Vector" fill-rule="evenodd" clip-rule="evenodd" d="M6.95069 3.25C5.68189 3.25 4.46506 3.75403 3.56789 4.6512C2.67071 5.54838 2.16669 6.7652 2.16669 8.034V17.6031C2.16654 18.2314 2.29018 18.8536 2.53054 19.4342C2.77089 20.0147 3.12326 20.5422 3.56751 20.9866C4.01175 21.4309 4.53919 21.7834 5.11968 22.0239C5.70017 22.2644 6.32235 22.3882 6.95069 22.3882H19.0494C19.6778 22.3882 20.3 22.2644 20.8806 22.0238C21.4612 21.7832 21.9887 21.4307 22.4329 20.9862C22.8772 20.5417 23.2295 20.0141 23.4698 19.4334C23.7101 18.8528 23.8336 18.2304 23.8334 17.602V8.034C23.8334 6.7652 23.3293 5.54838 22.4322 4.6512C21.535 3.75403 20.3181 3.25 19.0494 3.25H6.95069ZM10.4477 5.16425V20.4739H19.0494C19.8107 20.4739 20.541 20.1715 21.0793 19.6331C21.6177 19.0947 21.9202 18.3645 21.9202 17.6031V8.034C21.9202 7.27261 21.6177 6.5424 21.0793 6.00401C20.541 5.46563 19.8107 5.16317 19.0494 5.16317H10.4477V5.16425Z" fill="white"/>
</g>
</svg>
