<svg xmlns="http://www.w3.org/2000/svg" width="26" height="26" viewBox="0 0 16 16" fill="none">
  <path d="M8.38697 0.692749L6.63953 3.33281L7.56819 3.44947C7.28006 4.39103 7.22147 5.03941 7.29053 6.32822C7.73234 6.25853 8.08928 6.23369 8.55884 6.37166C8.25019 5.22041 8.28247 4.82706 8.40634 3.56641L9.42578 3.63756L8.38697 0.692749ZM15.2145 0.761812L11.8283 1.70025L12.4819 2.51197C10.9346 3.48131 9.97153 4.24784 9.20875 6.36084C9.62128 6.35609 10.0868 6.45212 10.5892 6.64222C10.7682 5.24641 11.6436 4.26284 13.0674 3.23853L13.6918 4.01403L15.2145 0.761812ZM0.727844 0.833999L2.78656 4.03666L3.38294 3.13944C4.494 4.15319 5.19997 5.52475 5.17381 6.49662C5.75406 6.22487 6.10903 6.19891 6.72803 6.37856C6.47475 5.40347 5.36625 2.981 3.86431 2.34409L4.38213 1.53044L0.727875 0.833968L0.727844 0.833999ZM9.3565 7.54234C9.1915 7.54609 9.03744 7.61781 8.82722 7.84216L8.62206 8.05994L8.40919 7.84994C8.17834 7.62244 7.99619 7.55962 7.81153 7.56775C7.62691 7.57587 7.40981 7.67297 7.167 7.8695L6.97272 8.02669L6.78816 7.85875C6.51003 7.60712 6.273 7.53253 6.04597 7.54425C5.88072 7.55281 5.70925 7.61506 5.53816 7.72394L6.81834 10.0267C7.30128 10.3221 8.28816 10.4332 8.96678 10.0912L10.2041 7.79919C9.96941 7.7035 9.75847 7.60537 9.57616 7.56775C9.51016 7.55409 9.44897 7.54412 9.38966 7.54234C9.37862 7.54206 9.36754 7.54206 9.3565 7.54234ZM6.54494 10.5482V10.5483C5.98134 10.9465 5.52881 11.6332 5.35353 12.639C5.18369 13.6139 5.45131 14.2723 5.92488 14.7211C6.39844 15.1698 7.10931 15.4003 7.83113 15.3909C8.553 15.3816 9.27288 15.1312 9.75691 14.6742C10.241 14.2171 10.5147 13.5672 10.3594 12.6371C10.1989 11.6759 9.78444 11.0075 9.25975 10.6029C8.36969 11.0734 7.25678 10.9734 6.54491 10.5482H6.54494Z" fill="white"/>
</svg>