<svg width="26" height="26" viewBox="0 0 26 26" fill="none" xmlns="http://www.w3.org/2000/svg">
<g id="fluent:money-hand-24-filled">
<path id="Vector" d="M6.77081 2.16669C6.12435 2.16669 5.50436 2.42349 5.04724 2.88061C4.59012 3.33773 4.33331 3.95772 4.33331 4.60419V21.3959C4.33331 22.0423 4.59012 22.6623 5.04724 23.1194C5.50436 23.5765 6.12435 23.8334 6.77081 23.8334H14.8958C15.5384 23.8334 16.1549 23.5797 16.6114 23.1275C17.0679 22.6753 17.3273 22.0611 17.3333 21.4186V19.7719C17.3333 19.5564 17.2477 19.3498 17.0953 19.1974C16.943 19.045 16.7363 18.9594 16.5208 18.9594C16.0301 18.9594 15.7202 18.8262 15.5068 18.6539C15.2815 18.473 15.0951 18.1935 14.9532 17.7992C14.6575 16.9813 14.6261 15.9034 14.6261 14.8959C14.626 14.6899 14.5478 14.4917 14.4072 14.3412L14.2285 14.1494C14.1696 14.0845 14.1082 14.022 14.0443 13.962C13.9641 13.8862 13.7193 13.6533 12.7627 12.6967C12.2546 12.1886 11.9741 11.7596 11.882 11.4314C11.8439 11.3178 11.8379 11.196 11.8646 11.0793C11.9047 10.9443 11.9816 10.8231 12.0867 10.7294C12.1803 10.6248 12.3011 10.5483 12.4356 10.5084C12.5519 10.4818 12.6734 10.4878 12.7866 10.5257C13.1137 10.6178 13.5427 10.9005 14.0508 11.4086C14.6358 11.9936 15.1916 12.5429 15.6888 13.0336C16.5121 13.8483 17.1762 14.5069 17.5521 14.9078C17.6994 15.0641 17.9026 15.1557 18.1172 15.1626C18.3319 15.1695 18.5405 15.0912 18.6976 14.9447C18.8546 14.7983 18.9473 14.5956 18.9554 14.381C18.9634 14.1664 18.8862 13.9573 18.7406 13.7995C18.2795 13.3172 17.8103 12.8426 17.3333 12.376V8.73169L20.4121 11.8105C20.8682 12.2677 21.1261 12.8874 21.1261 13.533V23.0209C21.1261 23.2363 21.2117 23.443 21.364 23.5954C21.5164 23.7478 21.7231 23.8334 21.9386 23.8334C22.1541 23.8334 22.3607 23.7478 22.5131 23.5954C22.6655 23.443 22.7511 23.2363 22.7511 23.0209V13.5341C22.751 13.0005 22.6459 12.4721 22.4416 11.9792C22.2373 11.4862 21.9379 11.0383 21.5605 10.6611L17.3333 6.43394V4.6031C17.333 3.95683 17.0761 3.33712 16.619 2.88023C16.1619 2.42335 15.5421 2.16669 14.8958 2.16669H6.77081ZM14.4885 19.9204C14.8444 20.2057 15.2622 20.4038 15.7083 20.4989V20.5834H14.8958C14.6803 20.5834 14.4737 20.669 14.3213 20.8213C14.1689 20.9737 14.0833 21.1804 14.0833 21.3959V22.2084H12.4583V21.3959C12.4584 20.9366 12.5881 20.4867 12.8327 20.098C13.0773 19.7094 13.4267 19.3977 13.8406 19.1989C14.014 19.4632 14.2263 19.7102 14.4885 19.9204ZM13.0021 15.2165C13.0043 15.4906 13.0097 15.7864 13.026 16.094C12.5215 16.4513 11.9374 16.6799 11.3244 16.7598C10.7114 16.8397 10.0882 16.7685 9.50904 16.5524C8.92987 16.3363 8.41231 15.9819 8.00145 15.5201C7.59058 15.0582 7.29886 14.5029 7.15171 13.9025C7.00455 13.3021 7.00642 12.6749 7.15715 12.0754C7.30788 11.4758 7.6029 10.9223 8.01652 10.4629C8.43013 10.0035 8.9498 9.65218 9.53024 9.43956C10.1107 9.22695 10.7343 9.15948 11.3468 9.24302C11.2024 9.33908 11.0659 9.45174 10.9373 9.58102C10.621 9.89735 10.3956 10.2635 10.2906 10.6752C10.1855 11.0869 10.2104 11.492 10.3176 11.8712C10.5224 12.6003 11.0381 13.2698 11.6144 13.8461C12.055 14.2921 12.5014 14.7323 12.9534 15.1667L12.9577 15.1699L12.9978 15.2122L13.0021 15.2165ZM7.58331 3.79169H9.20831V4.60419C9.20831 5.25065 8.95151 5.87064 8.49439 6.32776C8.03727 6.78488 7.41728 7.04169 6.77081 7.04169H5.95831V5.41669H6.77081C6.9863 5.41669 7.19296 5.33108 7.34534 5.17871C7.49771 5.02634 7.58331 4.81968 7.58331 4.60419V3.79169ZM12.4583 3.79169H14.0833V4.60419C14.0833 5.05269 14.4473 5.41669 14.8958 5.41669H15.7083V7.04169H14.8958C14.2493 7.04169 13.6294 6.78488 13.1722 6.32776C12.7151 5.87064 12.4583 5.25065 12.4583 4.60419V3.79169ZM9.20831 22.2084H7.58331V21.3959C7.58331 21.1804 7.49771 20.9737 7.34534 20.8213C7.19296 20.669 6.9863 20.5834 6.77081 20.5834H5.95831V18.9584H6.77081C7.41728 18.9584 8.03727 19.2152 8.49439 19.6723C8.95151 20.1294 9.20831 20.7494 9.20831 21.3959V22.2084Z" fill="white"/>
</g>
</svg>
